<?xml version="1.0" encoding="UTF-8"?>
<!-- Generator: visioncortex VTracer 0.6.4 -->
<svg version="1.1" xmlns="http://www.w3.org/2000/svg" width="393" height="227">
<path d="M0 0 C7.17 11.71 7.17 11.71 5.88 18.06 C2.77 24.36 -1.42 30.05 -5.51 35.74 C-7.17 38.12 -8.66 40.56 -10.12 43.06 C-4.07 41.37 1.23 38.38 6.75 35.44 C8.83 34.34 10.92 33.24 13 32.14 C14.02 31.61 15.03 31.07 16.07 30.53 C19.58 28.69 23.13 26.93 26.69 25.19 C31.67 22.75 36.56 20.16 41.43 17.5 C42.01 17.18 42.59 16.86 43.18 16.54 C46.1 14.94 49.01 13.34 51.92 11.72 C52.99 11.13 54.06 10.55 55.16 9.94 C56.6 9.15 56.6 9.15 58.06 8.33 C61.06 6.98 63.61 6.37 66.88 6.06 C67.87 6.56 67.87 6.56 68.88 7.06 C69.46 11.89 67.55 14.69 64.81 18.44 C64.2 19.29 64.2 19.29 63.58 20.17 C56.12 30.44 56.12 30.44 50.88 33.06 C49.54 33.18 48.21 33.27 46.88 33.34 C41.26 33.92 36.81 36.09 31.81 38.62 C30.89 39.08 29.97 39.53 29.03 39.99 C26.3 41.34 23.59 42.7 20.88 44.06 C19.48 44.76 18.09 45.46 16.69 46.15 C14.79 47.1 12.88 48.06 10.99 49.02 C6.3 51.38 1.58 53.64 -3.16 55.87 C-6.72 57.56 -10.28 59.27 -13.83 60.97 C-15.76 61.89 -17.71 62.77 -19.66 63.64 C-26.76 67.03 -31.05 71.74 -34.12 79.06 C-32.86 82.85 -31.63 83.24 -28.25 85.25 C-24.24 87.71 -20.4 90.26 -16.62 93.06 C-12.2 96.33 -7.65 99.31 -2.99 102.23 C1.19 104.91 5.26 107.75 9.32 110.59 C11.89 112.39 14.48 114.15 17.08 115.91 C17.8 116.39 18.51 116.87 19.24 117.37 C20.63 118.31 22.02 119.24 23.41 120.17 C30.26 124.82 37.23 130.53 38.88 139.06 C39.26 144.11 39.25 148.47 36.88 153.06 C29.86 153.96 26.41 151.19 20.94 147.06 C19.15 145.76 17.35 144.46 15.56 143.16 C14.63 142.49 13.69 141.81 12.73 141.11 C8.06 137.77 3.29 134.6 -1.5 131.44 C-2.47 130.79 -3.45 130.15 -4.45 129.48 C-6.53 128.1 -8.61 126.72 -10.68 125.35 C-16.6 121.42 -22.5 117.48 -28.4 113.54 C-31.64 111.39 -34.88 109.23 -38.11 107.07 C-41.12 105.07 -44.12 103.07 -47.12 101.06 C-50.09 100.71 -50.09 100.71 -51.5 102.42 C-52.2 103.36 -52.2 103.36 -52.9 104.32 C-53.42 105.01 -53.93 105.7 -54.46 106.41 C-54.99 107.14 -55.52 107.87 -56.06 108.62 C-56.59 109.33 -57.11 110.03 -57.65 110.76 C-61.45 115.91 -64.86 121.09 -67.38 127 C-71.54 134.29 -78.66 140.29 -86.12 144.06 C-89.55 144.63 -91.05 144.65 -94.06 143 C-95.4 140.56 -95.42 138.75 -94.87 136.05 C-93.27 131.76 -90.05 128.52 -87.12 125.06 C-85.54 123.12 -83.97 121.18 -82.39 119.23 C-80.69 117.13 -78.99 115.03 -77.28 112.94 C-72.53 107.11 -72.53 107.11 -67.86 101.23 C-66.69 99.77 -65.48 98.33 -64.24 96.93 C-62.62 95.01 -61.23 93.31 -60.12 91.06 C-60.72 87.51 -60.72 87.51 -62.12 84.06 C-62.33 78.43 -60.86 74.34 -57.12 70.06 C-51.97 65.8 -46.39 62.64 -40.44 59.62 C-34.53 56.48 -30.99 53.47 -27.12 48.06 C-26.45 47.14 -26.45 47.14 -25.75 46.21 C-19.81 38.17 -14.16 30.25 -10.12 21.06 C-37.79 27.75 -64.45 40.62 -89.55 53.87 C-93.46 55.68 -95.85 55.55 -100.12 55.06 C-102.19 53.62 -102.19 53.62 -103.12 51.06 C-103.12 40.54 -99.46 27.14 -92.41 19.1 C-89.48 16.48 -86.4 14.24 -83.12 12.06 C-82.54 11.68 -81.96 11.29 -81.36 10.89 C-77.19 8.3 -73.91 7.45 -69.12 7.06 C-69.47 10.32 -70.15 11.08 -72.69 13.31 C-73.49 13.89 -74.3 14.47 -75.12 15.06 C-68.43 13.37 -61.86 11.37 -55.31 9.21 C-54.52 8.96 -53.73 8.7 -52.92 8.43 C-49.64 7.35 -46.36 6.27 -43.08 5.18 C-9.59 -5.95 -9.59 -5.95 0 0 Z " fill="#151515" transform="translate(138.125,30.9375)"/>
<path d="M0 0 C3.04 3.13 4.85 5.59 5.31 9.94 C5 13 5 13 3.12 14.88 C1 16 1 16 -1 16 C-0.55 16.85 -0.55 16.85 -0.09 17.72 C2.45 22.88 3.9 26.3 2 32 C-0.15 35.47 -2.58 38.72 -5 42 C-9.45 48.3 -12.27 53.14 -11 61 C-10.67 61.99 -10.34 62.98 -10 64 C-1.84 63.11 3.52 60.99 10 56 C10.95 55.42 11.9 54.84 12.88 54.25 C15.15 51.84 15.49 50.75 16.31 47.62 C20.25 32.77 31.21 18.56 43.87 10.21 C47.14 8.35 49.8 7.84 53.5 7.81 C54.27 7.8 55.05 7.78 55.84 7.77 C58 8 58 8 61 10 C62.17 18.17 58.74 24.04 54.18 30.64 C50.86 35.06 50.86 35.06 49 37 C48.34 37 47.68 37 47 37 C46.75 37.58 46.5 38.16 46.25 38.76 C44.83 41.31 43.21 42.85 41.06 44.81 C37.4 48.39 35.4 51.06 34 56 C34.14 59.05 34.51 60.4 36.44 62.75 C39.88 65.5 42.67 65.29 47 65 C54.89 61.89 61.69 57.01 68.07 51.5 C70 50 70 50 72 50 C72.8 54.66 73.01 58.43 70.38 62.5 C68.02 65.12 65.55 67.56 63 70 C62.11 70.94 61.22 71.89 60.3 72.86 C53.37 80.16 45.69 87.56 35.19 88.25 C29.59 88.15 26.27 86.27 22.31 82.31 C18.18 76.97 16.81 70.39 15 64 C14.15 64.89 13.3 65.79 12.43 66.71 C6.47 72.89 0.5 78.75 -6.5 83.75 C-7.06 84.16 -7.62 84.56 -8.2 84.98 C-13.35 88.53 -18.68 90.94 -25 90 C-28.1 87.45 -29.73 85.82 -31 82 C-31.42 74.55 -30.16 67.35 -29 60 C-29.67 60.74 -30.33 61.48 -31.02 62.24 C-35.87 67.59 -40.77 72.9 -45.81 78.06 C-47.09 79.38 -47.09 79.38 -48.39 80.72 C-52.09 83.96 -55.59 85.69 -60.38 86.75 C-66.21 85.54 -68.78 81.83 -72 77 C-77.06 67.83 -78.53 58.31 -77 48 C-74.88 41.97 -71.29 37.64 -66.75 33.25 C-66.14 32.65 -65.54 32.06 -64.91 31.45 C-50.61 17.73 -21.6 -6.35 0 0 Z M-22.25 25.5 C-22.96 25.86 -23.68 26.22 -24.41 26.59 C-45.14 36.6 -45.14 36.6 -60.25 53.25 C-61.31 57.12 -61.53 61.01 -61 65 C-60.34 65.66 -59.68 66.32 -59 67 C-53.78 66.83 -50.54 64.62 -46.62 61.44 C-46.06 60.99 -45.49 60.53 -44.9 60.07 C-36.82 53.56 -30.33 46.2 -24 38 C-23.1 36.86 -22.21 35.72 -21.31 34.58 C-20.39 33.41 -19.48 32.23 -18.56 31.06 C-18.13 30.51 -17.69 29.95 -17.24 29.38 C-15.33 26.92 -13.99 24.98 -13 22 C-16.4 22 -19.27 23.99 -22.25 25.5 Z " fill="#181818" transform="translate(263,85)"/>
<path d="M0 0 C3.73 0.05 4.8 0.07 7.81 2.44 C9.58 6.2 9.82 8.24 9.19 12.38 C6.87 17.37 3.56 22.02 -0.81 25.38 C-4.65 26.63 -7.84 26.73 -11.69 25.31 C-14.52 22.73 -15.24 21.17 -15.81 17.38 C-13.92 9.55 -8.63 0.33 0 0 Z " fill="#1B1B1B" transform="translate(332.8125,60.625)"/>
<path d="M0 0 C0.66 0.33 1.32 0.66 2 1 C-13.33 17.94 -13.33 17.94 -18 22 C-18.66 22 -19.32 22 -20 22 C-20.61 37.29 -20.61 37.29 -17 52 C-16.65 53.33 -16.31 54.66 -16 56 C-21.15 51.44 -22.89 44.69 -23.39 38 C-23.7 29.39 -23.05 22.88 -17.44 16.12 C-15.7 14.27 -13.9 12.5 -12.06 10.75 C-11.45 10.15 -10.85 9.55 -10.22 8.94 C-6.96 5.75 -3.62 2.78 0 0 Z " fill="#727272" transform="translate(209,107)"/>
<path d="M0 0 C0.66 0.33 1.32 0.66 2 1 C1.05 1.72 0.1 2.44 -0.88 3.19 C-3.04 4.97 -3.91 5.77 -4.94 8.44 C-6.11 11.26 -7.02 11.97 -9.38 13.81 C-13.38 17.01 -14.99 20.33 -17 25 C-17.66 25 -18.32 25 -19 25 C-19.12 25.74 -19.25 26.48 -19.38 27.25 C-19.97 29.85 -20.82 31.63 -22 34 C-22.25 35.13 -22.5 36.27 -22.75 37.44 C-24.36 42.03 -26.16 43.12 -30 46 C-30.66 46.99 -31.32 47.98 -32 49 C-33.32 48.67 -34.64 48.34 -36 48 C-35.31 47.54 -34.63 47.08 -33.92 46.6 C-28.17 42.44 -25.35 39.74 -23.81 32.83 C-20.26 20.4 -10.12 7.66 0 0 Z " fill="#AFAFAF" transform="translate(304,97)"/>
<path d="M0 0 C0.66 1.32 1.32 2.64 2 4 C0.02 3.67 -1.96 3.34 -4 3 C-5.92 5.52 -7.84 8.04 -9.75 10.56 C-10.29 11.27 -10.83 11.97 -11.38 12.7 C-15.28 17.85 -18.71 22.96 -21.25 28.94 C-23.77 33.35 -27.31 36.55 -31 40 C-31.66 39.67 -32.32 39.34 -33 39 C-32.39 38.44 -31.77 37.89 -31.14 37.31 C-25.76 32.51 -25.76 32.51 -22.56 26.25 C-20.78 20.16 -16.17 15.43 -12.25 10.57 C-9.92 7.63 -7.75 4.56 -5.57 1.51 C-4 0 -4 0 0 0 Z " fill="#ABABAB" transform="translate(92,129)"/>
<path d="M0 0 C-3.96 1.39 -7.93 2.78 -11.9 4.16 C-13.24 4.63 -14.59 5.1 -15.93 5.58 C-23.22 8.14 -30.4 10.55 -38 12 C-36.28 8.24 -34.01 5.85 -31 3 C-31.99 2.34 -32.98 1.68 -34 1 C-30.53 0.51 -30.53 0.51 -27 0 C-27.35 3.26 -28.02 4.02 -30.56 6.25 C-31.77 7.12 -31.77 7.12 -33 8 C-27.73 6.68 -22.54 5.21 -17.4 3.43 C-16.6 3.15 -15.81 2.88 -14.98 2.59 C-13.38 2.04 -11.79 1.47 -10.2 0.89 C-9.45 0.64 -8.71 0.38 -7.94 0.11 C-7.28 -0.13 -6.62 -0.37 -5.93 -0.61 C-3.65 -1.07 -2.19 -0.71 0 0 Z " fill="#717171" transform="translate(96,38)"/>
<path d="M0 0 C0.66 0 1.32 0 2 0 C0.26 9.21 0.26 9.21 -1.06 13.25 C-2.52 19.08 -2.68 25.01 -3 31 C-6.48 25.78 -5.11 20.21 -4 14.31 C-3.81 13.42 -3.63 12.53 -3.44 11.61 C-2.92 9 -2.92 9 -3.02 6.31 C-2.99 3.31 -2.05 2.13 0 0 Z " fill="#9B9B9B" transform="translate(237,139)"/>
<path d="M0 0 C0.66 0.33 1.32 0.66 2 1 C1.28 1.81 1.28 1.81 0.54 2.64 C-0.09 3.36 -0.72 4.08 -1.38 4.81 C-2.31 5.87 -2.31 5.87 -3.27 6.96 C-7.37 11.81 -7.37 14.92 -7 21 C-6.58 23.89 -6.58 23.89 -6 26 C-6.66 26.33 -7.32 26.66 -8 27 C-10.06 19.65 -11.02 13.76 -7.25 6.75 C-5.04 4.05 -2.82 2.04 0 0 Z " fill="#727272" transform="translate(86,97)"/>
<path d="M0 0 C0.33 0 0.66 0 1 0 C0.97 0.84 0.93 1.69 0.89 2.55 C0.87 3.65 0.84 4.75 0.81 5.88 C0.78 6.97 0.74 8.06 0.71 9.18 C0.8 10.11 0.9 11.04 1 12 C4.2 14.14 5.02 14.23 8.69 14.12 C9.5 14.11 10.3 14.09 11.14 14.07 C11.75 14.05 12.37 14.02 13 14 C12.67 14.66 12.34 15.32 12 16 C7.75 16.92 5.21 17.45 1.12 15.94 C-1.7 13.36 -2.43 11.8 -3 8 C-2.27 5.14 -1.22 2.71 0 0 Z " fill="#A9A9A9" transform="translate(320,70)"/>
<path d="M0 0 C0.33 0.66 0.66 1.32 1 2 C0 3.95 0 3.95 -1.44 6.12 C-1.91 6.85 -2.38 7.57 -2.87 8.32 C-3.24 8.87 -3.62 9.43 -4 10 C-2.02 9.67 -0.04 9.34 2 9 C2 9.66 2 10.32 2 11 C0.54 11.67 -0.92 12.34 -2.38 13 C-3.59 13.56 -3.59 13.56 -4.84 14.12 C-7 15 -7 15 -9 15 C-7.61 11.11 -5.78 8.03 -3.38 4.69 C-2.74 3.8 -2.11 2.92 -1.46 2.01 C-0.98 1.35 -0.5 0.68 0 0 Z " fill="#9A9A9A" transform="translate(132,64)"/>
<path d="M0 0 C0.66 0.33 1.32 0.66 2 1 C0.58 2.08 0.58 2.08 -0.88 3.19 C-3.06 4.99 -3.93 5.82 -5 8.5 C-6.46 12.16 -8.89 13.63 -12 16 C-11.68 10.66 -8.6 7.64 -5 4 C-3.37 2.62 -1.72 1.26 0 0 Z " fill="#7F7F7F" transform="translate(304,97)"/>
<path d="M0 0 C-0.47 4.27 -2.96 6.17 -6 9 C-6.56 9.6 -7.11 10.2 -7.69 10.81 C-9 12 -9 12 -11 12 C-9.44 8.18 -6.96 5.81 -4 3 C-4.99 2.34 -5.98 1.68 -7 1 C-4.54 -0.23 -2.72 -0.07 0 0 Z " fill="#A6A6A6" transform="translate(69,38)"/>
<path d="M0 0 C0.66 0.33 1.32 0.66 2 1 C-5.11 9.63 -5.11 9.63 -10 12 C-7.75 6.94 -4.58 3.11 0 0 Z " fill="#585858" transform="translate(52,45)"/>
<path d="M0 0 C0.99 0.33 1.98 0.66 3 1 C-2.94 6.45 -2.94 6.45 -9 12 C-9.33 11.01 -9.66 10.02 -10 9 C-9.09 8.26 -8.19 7.52 -7.25 6.75 C-4.69 4.62 -2.31 2.4 0 0 Z " fill="#494949" transform="translate(309,94)"/>
<path d="M0 0 C0 0.66 0 1.32 0 2 C-2.43 2.7 -4.87 3.38 -7.31 4.06 C-8 4.26 -8.69 4.46 -9.4 4.67 C-14.66 6.11 -14.66 6.11 -18 5 C-17.3 4.72 -16.6 4.45 -15.88 4.16 C-14.97 3.8 -14.06 3.44 -13.12 3.06 C-12.22 2.7 -11.32 2.34 -10.38 1.97 C-6.54 0.4 -4.23 -0.09 0 0 Z " fill="#999999" transform="translate(128,50)"/>
<path d="M0 0 C0 3.2 -0.55 4.42 -2 7.19 C-2.37 7.9 -2.74 8.62 -3.12 9.36 C-3.41 9.9 -3.7 10.44 -4 11 C-4.66 11 -5.32 11 -6 11 C-6.33 12.65 -6.66 14.3 -7 16 C-7.71 14.36 -7.71 14.36 -8 12 C-6.6 9.24 -6.6 9.24 -4.62 6.31 C-3.98 5.34 -3.33 4.37 -2.66 3.36 C-1 1 -1 1 0 0 Z " fill="#A3A3A3" transform="translate(291,111)"/>
<path d="M0 0 C-1.32 1.32 -2.64 2.64 -4 4 C-4.33 3.34 -4.66 2.68 -5 2 C-5.54 2.3 -6.09 2.6 -6.64 2.91 C-7.36 3.29 -8.08 3.67 -8.81 4.06 C-9.52 4.45 -10.23 4.83 -10.96 5.22 C-13 6 -13 6 -16 5 C-14.09 3.96 -12.17 2.95 -10.25 1.94 C-8.65 1.08 -8.65 1.08 -7.02 0.21 C-3.97 -1.01 -2.95 -1.25 0 0 Z " fill="#B0B0B0" transform="translate(253,106)"/>
<path d="M0 0 C0.66 0 1.32 0 2 0 C0.41 5.09 -2.74 8.87 -6 13 C-6.33 12.34 -6.66 11.68 -7 11 C-5.64 8.4 -5.64 8.4 -3.69 5.38 C-3.05 4.37 -2.42 3.37 -1.76 2.34 C-1.18 1.57 -0.6 0.79 0 0 Z " fill="#B1B1B1" transform="translate(140,51)"/>
<path d="M0 0 C1.01 3.16 0.97 5.34 0.25 8.56 C0.09 9.33 -0.07 10.09 -0.23 10.88 C-1.09 13.24 -2.11 14.38 -4 16 C-3.4 10.35 -1.92 5.34 0 0 Z " fill="#818181" transform="translate(41,57)"/>
<path d="M0 0 C0.66 0 1.32 0 2 0 C1.3 3.15 0.24 6.03 -1 9 C-2.19 7.31 -2.19 7.31 -3 5 C-1.75 2.25 -1.75 2.25 0 0 Z " fill="#BABABA" transform="translate(237,139)"/>
<path d="M0 0 C-6.45 4.09 -6.45 4.09 -9.23 3.62 C-9.82 3.42 -10.4 3.21 -11 3 C-9.74 2.3 -8.46 1.62 -7.19 0.94 C-6.48 0.55 -5.77 0.17 -5.04 -0.22 C-3 -1 -3 -1 0 0 Z " fill="#838383" transform="translate(205,38)"/>
</svg>
